# xmcd
#
# Track frame offsets:
#	150
#	32590
#	50325
#	81010
#	104445
#	121965
#	137510
#	156927
#	205777
#	226715
#	242357
#	272197
#
# Disc length: 4038 seconds
#
# Revision: 3
# Processed by: cddbd v1.5.2PL0 Copyright (c) Steve Scherf et al.
# Submitted via: EasyCDDAExtractor 15.3.0.1
#
DISCID=920fc40c
DTITLE=Thalia - Thalia's Hits Remixed
DYEAR=2003
DGENRE=Latin
TTITLE0=A Quien Le Importa (Club Vocal Mix Hex Hector-Mac Qualye Re-Mixes)
TTITLE1=It's My Party (English Version)
TTITLE2=Amor A La Mexicana (Cuca's Fiesta Mix)
TTITLE3=Piel Morena (Hitmakers Remix)
TTITLE4=Mujer Latina (Remix ''España'')
TTITLE5=The Mexican ''Dance Dance'' (Hex Hector-Mac Qualye Radio Remix)
TTITLE6=No Me Enseñaste (Estefano Remix)
TTITLE7=Entre El Mar Y Una Estrella (Pablo Flores Club Mix)
TTITLE8=Por Amor (Primera Vez Remix)
TTITLE9=Tu Y Yo (Ballad Version)
TTITLE10=El Mar Y Arrasando Medley
TTITLE11=DATA
EXTD=
EXTT0=
EXTT1=
EXTT2=
EXTT3=
EXTT4=
EXTT5=
EXTT6=
EXTT7=
EXTT8=
EXTT9=
EXTT10=
EXTT11=
PLAYORDER=
